<?xml version="1.0" standalone="no"?>
<!DOCTYPE svg PUBLIC "-//W3C//DTD SVG 20010904//EN"
 "http://www.w3.org/TR/2001/REC-SVG-20010904/DTD/svg10.dtd">
<svg version="1.0" xmlns="http://www.w3.org/2000/svg"
 width="200.000000pt" height="200.000000pt" viewBox="0 0 200.000000 200.000000"
 preserveAspectRatio="xMidYMid meet">
<metadata>
Created by potrace 1.14, written by Peter Selinger 2001-2017
</metadata>
<g transform="translate(0.000000,200.000000) scale(0.100000,-0.100000)"
fill="#000000" stroke="none">
<path d="M858 1970 c-148 -24 -301 -84 -429 -170 -140 -94 -284 -271 -349
-427 -69 -165 -96 -369 -71 -533 60 -391 344 -718 712 -820 63 -17 103 -20
277 -20 222 0 261 6 390 59 82 34 214 117 283 179 99 88 205 239 253 362 58
148 70 214 70 380 0 135 -4 167 -26 252 -63 234 -208 439 -401 570 -88 60
-231 124 -327 148 -97 24 -294 34 -382 20z m-5 -410 c113 -54 132 -67 192
-132 37 -40 79 -90 93 -110 l24 -38 25 20 c13 10 50 26 81 35 31 9 63 21 69
27 19 16 43 1 43 -26 0 -50 -82 -84 -130 -53 -17 10 -22 9 -30 -3 -18 -28 -11
-51 18 -61 16 -5 39 -23 51 -40 l22 -30 -40 -16 c-41 -16 -61 -47 -43 -65 6
-6 17 -6 30 1 11 6 41 11 67 11 46 0 46 0 31 -22 -32 -45 -21 -79 49 -153 49
-52 69 -81 80 -119 46 -160 55 -196 55 -213 0 -53 -104 -203 -140 -203 -5 0
-24 13 -41 28 -31 28 -31 29 -18 66 24 67 18 70 -191 95 -52 7 -110 16 -129
21 -29 8 -42 5 -81 -17 -26 -14 -54 -24 -62 -21 -8 4 -32 38 -52 78 l-36 71
52 55 c58 61 79 66 119 28 21 -20 34 -25 54 -20 31 8 44 35 23 47 -8 5 -25 31
-37 59 l-22 50 -31 -16 c-48 -25 -88 -12 -183 57 -147 106 -192 177 -181 281
l7 59 -55 53 c-59 57 -76 88 -76 141 0 73 93 133 207 134 55 1 74 -5 186 -59z"/>
</g>
</svg>
