<?xml version="1.0" standalone="no"?>
<!DOCTYPE svg PUBLIC "-//W3C//DTD SVG 20010904//EN"
 "http://www.w3.org/TR/2001/REC-SVG-20010904/DTD/svg10.dtd">
<svg version="1.0" xmlns="http://www.w3.org/2000/svg"
 width="500.000000pt" height="500.000000pt" viewBox="0 0 500.000000 500.000000"
 preserveAspectRatio="xMidYMid meet">

<g transform="translate(0.000000,500.000000) scale(0.100000,-0.100000)"
fill="#000000" stroke="none">
<path d="M780 2694 c-46 -20 -96 -69 -123 -119 -30 -56 -31 -172 -1 -211 40
-54 70 -69 139 -69 50 0 70 5 94 23 31 22 31 23 31 2 0 -18 5 -21 32 -18 l32
3 18 95 c9 52 17 101 17 108 1 8 -21 12 -78 12 -73 0 -79 -2 -85 -22 -9 -37
-8 -38 39 -38 44 0 44 0 34 -27 -16 -42 -38 -62 -81 -74 -49 -13 -102 3 -124
36 -18 28 -20 100 -5 148 17 50 71 98 118 104 47 6 98 -16 108 -47 5 -16 15
-20 47 -20 39 0 40 1 33 28 -10 42 -30 68 -68 86 -43 20 -130 20 -177 0z"/>
<path d="M1805 2698 c-6 -21 -65 -363 -65 -381 0 -13 9 -17 33 -17 l33 0 33
188 c17 103 31 195 31 205 0 12 -8 17 -30 17 -17 0 -32 -6 -35 -12z"/>
<path d="M2335 2701 c-28 -12 -51 -41 -59 -73 -5 -21 -12 -28 -31 -28 -20 0
-25 -5 -25 -25 0 -14 3 -25 8 -25 30 -1 32 -18 12 -125 -11 -60 -20 -112 -20
-117 0 -4 15 -8 33 -8 l33 0 20 118 19 117 33 3 c28 3 32 7 32 33 0 24 -4 29
-25 29 -14 0 -25 4 -25 9 0 27 15 41 41 41 26 0 29 4 29 30 0 26 -3 30 -27 29
-16 0 -37 -4 -48 -8z"/>
<path d="M3827 2703 c-4 -3 -10 -28 -13 -55 -6 -41 -10 -48 -29 -48 -15 0 -25
-8 -29 -22 -3 -13 -2 -24 2 -26 34 -12 35 -18 18 -115 -19 -114 -19 -102 0
-121 9 -10 33 -16 60 -16 40 0 44 2 44 25 0 14 -6 25 -12 25 -35 1 -38 14 -23
101 8 46 15 85 15 87 0 1 13 2 29 2 28 0 41 14 41 46 0 9 -11 14 -28 14 -29 0
-29 0 -24 55 4 53 4 55 -20 55 -14 0 -28 -3 -31 -7z"/>
<path d="M4002 2698 c-16 -16 -15 -43 3 -58 12 -10 20 -9 40 4 26 17 29 24 19
50 -7 19 -45 21 -62 4z"/>
<path d="M1165 2586 c-64 -29 -105 -94 -105 -167 0 -55 22 -93 66 -114 66 -31
166 2 199 66 l16 29 -36 0 c-19 0 -35 -4 -35 -10 0 -14 -55 -40 -84 -40 -27 0
-56 32 -56 62 0 15 13 18 113 20 l112 3 3 48 c3 43 0 51 -31 82 -31 31 -41 35
-83 35 -27 -1 -62 -7 -79 -14z m103 -52 c44 -31 28 -44 -53 -44 -72 0 -75 1
-63 19 24 40 79 51 116 25z"/>
<path d="M1505 2586 c-64 -29 -105 -94 -105 -167 0 -54 22 -93 64 -113 94 -44
209 21 235 134 14 61 4 95 -36 130 -27 24 -42 30 -81 30 -26 -1 -60 -7 -77
-14z m128 -90 c13 -40 -16 -112 -53 -131 -66 -34 -110 -6 -110 70 0 49 21 82
64 100 41 18 86 0 99 -39z"/>
<path d="M1925 2578 c-9 -41 -45 -251 -45 -265 0 -8 12 -13 29 -13 33 0 35 2
52 105 18 111 51 154 104 141 35 -9 37 -31 16 -144 l-18 -102 33 0 c19 0 34 1
34 3 0 1 9 50 19 109 21 119 18 152 -12 173 -28 20 -92 19 -122 -1 -23 -15
-25 -15 -25 0 0 11 -9 16 -30 16 -23 0 -31 -5 -35 -22z"/>
<path d="M2505 2586 c-64 -29 -105 -94 -105 -167 0 -54 22 -93 64 -113 94 -44
209 21 235 134 14 61 4 95 -36 130 -27 24 -42 30 -81 30 -26 -1 -60 -7 -77
-14z m128 -90 c13 -40 -16 -112 -53 -131 -66 -34 -110 -6 -110 70 0 49 21 82
64 100 41 18 86 0 99 -39z"/>
<path d="M2761 2470 c-13 -72 -25 -140 -28 -150 -5 -17 0 -20 29 -20 l35 0 13
78 c20 121 48 162 110 162 16 0 20 7 20 30 0 35 -22 40 -70 15 -27 -14 -30
-14 -30 0 0 10 -10 15 -28 15 l-29 0 -22 -130z"/>
<path d="M2985 2578 c-9 -41 -45 -251 -45 -265 0 -8 12 -13 29 -13 33 0 35 2
52 105 14 85 32 122 66 138 22 10 28 8 43 -11 10 -12 17 -30 15 -39 -2 -10 -9
-49 -15 -88 -7 -38 -14 -78 -17 -87 -3 -15 2 -18 30 -18 l34 0 17 91 c25 136
54 177 106 149 24 -13 25 -31 5 -133 -21 -109 -21 -109 17 -105 l32 3 17 95
c24 131 23 152 -4 178 -30 28 -95 30 -128 3 -24 -19 -25 -19 -48 0 -28 23 -72
24 -111 4 -27 -14 -30 -14 -30 0 0 10 -10 15 -30 15 -23 0 -31 -5 -35 -22z"/>
<path d="M3513 2580 c-31 -18 -53 -48 -53 -69 0 -20 49 -11 74 14 39 39 96 29
96 -16 0 -13 -18 -21 -75 -34 -97 -21 -135 -51 -135 -105 0 -54 38 -84 98 -77
24 2 52 13 62 22 18 16 20 17 20 2 0 -13 9 -17 33 -17 l34 0 16 98 c20 113 21
141 4 163 -33 43 -120 53 -174 19z m107 -154 c0 -8 -12 -28 -26 -45 -43 -52
-131 -35 -97 18 6 9 32 21 59 28 66 15 64 15 64 -1z"/>
<path d="M3980 2597 c0 -2 -11 -66 -25 -143 -14 -76 -25 -142 -25 -146 0 -5
15 -8 33 -8 l32 0 23 133 c29 170 29 167 -8 167 -16 0 -30 -1 -30 -3z"/>
<path d="M4171 2583 c-75 -37 -118 -143 -87 -216 43 -104 192 -98 266 10 26
39 37 115 21 155 -23 61 -126 87 -200 51z m122 -61 c34 -30 14 -122 -35 -156
-51 -36 -118 0 -118 63 0 44 33 95 71 107 36 12 54 9 82 -14z"/>
</g>
</svg>
